# Blender v2.91.2 OBJ File: 'rubik.blend'
# www.blender.org
o Face_Cube.003
v -0.410000 -0.369000 0.041000
v -0.369000 -0.410000 0.041000
v -0.408972 -0.378123 0.041000
v -0.405940 -0.386789 0.041000
v -0.401055 -0.394563 0.041000
v -0.394563 -0.401055 0.041000
v -0.386789 -0.405940 0.041000
v -0.378123 -0.408972 0.041000
v -0.369000 0.410000 0.041000
v -0.410000 0.369000 0.041000
v -0.378123 0.408972 0.041000
v -0.386789 0.405940 0.041000
v -0.394563 0.401055 0.041000
v -0.401055 0.394563 0.041000
v -0.405940 0.386789 0.041000
v -0.408972 0.378123 0.041000
v 0.369000 -0.410000 0.041000
v 0.410000 -0.369000 0.041000
v 0.378123 -0.408972 0.041000
v 0.386789 -0.405940 0.041000
v 0.394563 -0.401055 0.041000
v 0.401055 -0.394563 0.041000
v 0.405940 -0.386789 0.041000
v 0.408972 -0.378123 0.041000
v 0.410000 0.369000 0.041000
v 0.369000 0.410000 0.041000
v 0.408972 0.378123 0.041000
v 0.405940 0.386789 0.041000
v 0.401055 0.394563 0.041000
v 0.394563 0.401055 0.041000
v 0.386789 0.405940 0.041000
v 0.378123 0.408972 0.041000
v -0.369000 -0.410000 -0.041000
v -0.410000 -0.369000 -0.041000
v -0.378123 -0.408972 -0.041000
v -0.386789 -0.405940 -0.041000
v -0.394563 -0.401055 -0.041000
v -0.401055 -0.394563 -0.041000
v -0.405940 -0.386789 -0.041000
v -0.408972 -0.378123 -0.041000
v -0.410000 0.369000 -0.041000
v -0.369000 0.410000 -0.041000
v -0.408972 0.378123 -0.041000
v -0.405940 0.386789 -0.041000
v -0.401055 0.394563 -0.041000
v -0.394563 0.401055 -0.041000
v -0.386789 0.405940 -0.041000
v -0.378123 0.408972 -0.041000
v 0.410000 -0.369000 -0.041000
v 0.369000 -0.410000 -0.041000
v 0.408972 -0.378123 -0.041000
v 0.405940 -0.386789 -0.041000
v 0.401055 -0.394563 -0.041000
v 0.394563 -0.401055 -0.041000
v 0.386789 -0.405940 -0.041000
v 0.378123 -0.408972 -0.041000
v 0.369000 0.410000 -0.041000
v 0.410000 0.369000 -0.041000
v 0.378123 0.408972 -0.041000
v 0.386789 0.405940 -0.041000
v 0.394563 0.401055 -0.041000
v 0.401055 0.394563 -0.041000
v 0.405940 0.386789 -0.041000
v 0.408972 0.378123 -0.041000
vt 0.125000 0.512500
vt 0.291771 0.330094
vt 0.292079 0.330975
vt 0.292576 0.331765
vt 0.293235 0.337380
vt 0.294025 0.338464
vt 0.294906 0.339917
vt 0.137500 0.500000
vt 0.362500 0.500000
vt 0.371761 0.493625
vt 0.372641 0.495695
vt 0.373431 0.497771
vt 0.374091 0.504706
vt 0.374587 0.507077
vt 0.374896 0.509719
vt 0.375000 0.512500
vt 0.375000 0.737500
vt 0.374896 0.740281
vt 0.374587 0.742924
vt 0.374091 0.745294
vt 0.373431 0.752229
vt 0.372641 0.754305
vt 0.371761 0.756375
vt 0.362500 0.750000
vt 0.137500 0.750000
vt 0.134718 0.749687
vt 0.132076 0.748762
vt 0.129706 0.747273
vt 0.127727 0.745294
vt 0.126238 0.742924
vt 0.125313 0.740282
vt 0.125000 0.737500
vt 0.625000 0.512500
vt 0.625104 0.509719
vt 0.625413 0.507076
vt 0.625909 0.504706
vt 0.626569 0.497771
vt 0.627359 0.495695
vt 0.628240 0.493625
vt 0.637500 0.500000
vt 0.862500 0.500000
vt 0.705094 0.339917
vt 0.705975 0.338464
vt 0.706765 0.337380
vt 0.707424 0.331765
vt 0.707921 0.330975
vt 0.708229 0.330094
vt 0.875000 0.512500
vt 0.875000 0.737500
vt 0.874687 0.740281
vt 0.873762 0.742924
vt 0.872273 0.745294
vt 0.870294 0.747273
vt 0.867923 0.748762
vt 0.865281 0.749687
vt 0.862500 0.750000
vt 0.637500 0.750000
vt 0.628240 0.756375
vt 0.627359 0.754305
vt 0.626569 0.752229
vt 0.625909 0.745294
vt 0.625413 0.742923
vt 0.625104 0.740281
vt 0.625000 0.737500
vn 0.0000 0.0000 -1.0000
vn -0.0000 -0.0000 1.0000
s off
f 41/1/1 43/2/1 44/3/1 45/4/1 46/5/1 47/6/1 48/7/1 42/8/1 57/9/1 59/10/1 60/11/1 61/12/1 62/13/1 63/14/1 64/15/1 58/16/1 49/17/1 51/18/1 52/19/1 53/20/1 54/21/1 55/22/1 56/23/1 50/24/1 33/25/1 35/26/1 36/27/1 37/28/1 38/29/1 39/30/1 40/31/1 34/32/1
f 25/33/2 27/34/2 28/35/2 29/36/2 30/37/2 31/38/2 32/39/2 26/40/2 9/41/2 11/42/2 12/43/2 13/44/2 14/45/2 15/46/2 16/47/2 10/48/2 1/49/2 3/50/2 4/51/2 5/52/2 6/53/2 7/54/2 8/55/2 2/56/2 17/57/2 19/58/2 20/59/2 21/60/2 22/61/2 23/62/2 24/63/2 18/64/2
o Face.001_Cube.002
v -0.369000 -0.410000 -0.041000
v -0.410000 -0.369000 -0.041000
v -0.378123 -0.408972 -0.041000
v -0.386789 -0.405940 -0.041000
v -0.394563 -0.401055 -0.041000
v -0.401055 -0.394563 -0.041000
v -0.405940 -0.386789 -0.041000
v -0.408972 -0.378123 -0.041000
v -0.410000 -0.369000 0.041000
v -0.369000 -0.410000 0.041000
v -0.408972 -0.378123 0.041000
v -0.405940 -0.386789 0.041000
v -0.401055 -0.394563 0.041000
v -0.394563 -0.401055 0.041000
v -0.386789 -0.405940 0.041000
v -0.378123 -0.408972 0.041000
v -0.410000 0.369000 -0.041000
v -0.369000 0.410000 -0.041000
v -0.408972 0.378123 -0.041000
v -0.405940 0.386789 -0.041000
v -0.401055 0.394563 -0.041000
v -0.394563 0.401055 -0.041000
v -0.386789 0.405940 -0.041000
v -0.378123 0.408972 -0.041000
v -0.369000 0.410000 0.041000
v -0.410000 0.369000 0.041000
v -0.378123 0.408972 0.041000
v -0.386789 0.405940 0.041000
v -0.394563 0.401055 0.041000
v -0.401055 0.394563 0.041000
v -0.405940 0.386789 0.041000
v -0.408972 0.378123 0.041000
v 0.410000 -0.369000 -0.041000
v 0.369000 -0.410000 -0.041000
v 0.408972 -0.378123 -0.041000
v 0.405940 -0.386789 -0.041000
v 0.401055 -0.394563 -0.041000
v 0.394563 -0.401055 -0.041000
v 0.386789 -0.405940 -0.041000
v 0.378123 -0.408972 -0.041000
v 0.369000 -0.410000 0.041000
v 0.410000 -0.369000 0.041000
v 0.378123 -0.408972 0.041000
v 0.386789 -0.405940 0.041000
v 0.394563 -0.401055 0.041000
v 0.401055 -0.394563 0.041000
v 0.405940 -0.386789 0.041000
v 0.408972 -0.378123 0.041000
v 0.369000 0.410000 -0.041000
v 0.410000 0.369000 -0.041000
v 0.378123 0.408972 -0.041000
v 0.386789 0.405940 -0.041000
v 0.394563 0.401055 -0.041000
v 0.401055 0.394563 -0.041000
v 0.405940 0.386789 -0.041000
v 0.408972 0.378123 -0.041000
v 0.410000 0.369000 0.041000
v 0.369000 0.410000 0.041000
v 0.408972 0.378123 0.041000
v 0.405940 0.386789 0.041000
v 0.401055 0.394563 0.041000
v 0.394563 0.401055 0.041000
v 0.386789 0.405940 0.041000
v 0.378123 0.408972 0.041000
vt 0.375000 0.762500
vt 0.625000 0.762500
vt 0.625000 0.987500
vt 0.375000 0.987500
vt 0.375000 0.512500
vt 0.625000 0.512500
vt 0.625000 0.737500
vt 0.375000 0.737500
vt 0.375000 0.012500
vt 0.625000 0.012500
vt 0.625000 0.237500
vt 0.375000 0.237500
vt 0.375000 0.262500
vt 0.625000 0.262500
vt 0.625000 0.487500
vt 0.375000 0.487500
vt 0.625000 0.990282
vt 0.375000 0.990282
vt 0.625000 0.992924
vt 0.375000 0.992924
vt 0.625000 0.995294
vt 0.375000 0.995294
vt 0.375000 0.000000
vt 0.625000 0.000000
vt 0.625000 0.004706
vt 0.375000 0.004706
vt 0.625000 0.007076
vt 0.375000 0.007076
vt 0.625000 0.009718
vt 0.375000 0.009718
vt 0.294906 0.339917
vt 0.705094 0.339917
vt 0.294025 0.338464
vt 0.705975 0.338464
vt 0.293235 0.337380
vt 0.706765 0.337380
vt 0.292576 0.331765
vt 0.707424 0.331765
vt 0.292079 0.330975
vt 0.707921 0.330975
vt 0.291771 0.330094
vt 0.708229 0.330094
vt 0.374896 0.509719
vt 0.625104 0.509719
vt 0.374587 0.507077
vt 0.625413 0.507076
vt 0.374091 0.504706
vt 0.625909 0.504706
vt 0.373431 0.497771
vt 0.626569 0.497771
vt 0.372641 0.495695
vt 0.627359 0.495695
vt 0.371761 0.493625
vt 0.628240 0.493625
vt 0.371761 0.756375
vt 0.628240 0.756375
vt 0.372641 0.754305
vt 0.627359 0.754305
vt 0.373431 0.752229
vt 0.626569 0.752229
vt 0.374091 0.745294
vt 0.625909 0.745294
vt 0.374587 0.742924
vt 0.625413 0.742923
vt 0.374896 0.740281
vt 0.625104 0.740281
vn 0.0561 -0.9984 0.0000
vn -0.0561 -0.9984 0.0000
vn 0.9984 0.0561 0.0000
vn 0.9984 -0.0561 0.0000
vn -0.9984 -0.0561 0.0000
vn -0.9984 0.0561 0.0000
vn -0.0561 0.9984 0.0000
vn 0.0561 0.9984 0.0000
vn -0.2225 -0.9749 0.0000
vn -0.4339 -0.9010 0.0000
vn -0.6235 -0.7818 0.0000
vn -0.7818 -0.6235 0.0000
vn -0.9010 -0.4339 0.0000
vn -0.9749 -0.2225 0.0000
vn -0.2225 0.9749 0.0000
vn -0.4339 0.9010 0.0000
vn -0.6235 0.7818 0.0000
vn -0.7818 0.6235 0.0000
vn -0.9010 0.4339 0.0000
vn -0.9749 0.2225 0.0000
vn 0.9749 0.2225 0.0000
vn 0.9010 0.4339 0.0000
vn 0.7818 0.6235 0.0000
vn 0.6235 0.7818 0.0000
vn 0.4339 0.9010 0.0000
vn 0.2225 0.9749 0.0000
vn 0.2225 -0.9749 0.0000
vn 0.4339 -0.9010 0.0000
vn 0.6235 -0.7818 0.0000
vn 0.7818 -0.6235 0.0000
vn 0.9010 -0.4339 0.0000
vn 0.9749 -0.2225 0.0000
s 1
f 98/65/3 105/66/3 74/67/4 65/68/4
f 114/69/5 121/70/5 106/71/6 97/72/6
f 66/73/7 73/74/7 90/75/8 81/76/8
f 82/77/9 89/78/9 122/79/10 113/80/10
f 65/68/4 74/67/4 80/81/11 67/82/11
f 67/82/11 80/81/11 79/83/12 68/84/12
f 68/84/12 79/83/12 78/85/13 69/86/13
f 69/87/13 78/88/13 77/89/14 70/90/14
f 70/90/14 77/89/14 76/91/15 71/92/15
f 71/92/15 76/91/15 75/93/16 72/94/16
f 72/94/16 75/93/16 73/74/7 66/73/7
f 89/78/9 82/77/9 88/95/17 91/96/17
f 91/96/17 88/95/17 87/97/18 92/98/18
f 92/98/18 87/97/18 86/99/19 93/100/19
f 93/100/19 86/99/19 85/101/20 94/102/20
f 94/102/20 85/101/20 84/103/21 95/104/21
f 95/104/21 84/103/21 83/105/22 96/106/22
f 96/106/22 83/105/22 81/76/8 90/75/8
f 121/70/5 114/69/5 120/107/23 123/108/23
f 123/108/23 120/107/23 119/109/24 124/110/24
f 124/110/24 119/109/24 118/111/25 125/112/25
f 125/112/25 118/111/25 117/113/26 126/114/26
f 126/114/26 117/113/26 116/115/27 127/116/27
f 127/116/27 116/115/27 115/117/28 128/118/28
f 128/118/28 115/117/28 113/80/10 122/79/10
f 105/66/3 98/65/3 104/119/29 107/120/29
f 107/120/29 104/119/29 103/121/30 108/122/30
f 108/122/30 103/121/30 102/123/31 109/124/31
f 109/124/31 102/123/31 101/125/32 110/126/32
f 110/126/32 101/125/32 100/127/33 111/128/33
f 111/128/33 100/127/33 99/129/34 112/130/34
f 112/130/34 99/129/34 97/72/6 106/71/6
